<svg xmlns="http://www.w3.org/2000/svg" xmlns:xlink="http://www.w3.org/1999/xlink" width="500" zoomAndPan="magnify" viewBox="0 0 375 149.999998" height="200" preserveAspectRatio="xMidYMid meet" version="1.0"><defs><g/><clipPath id="3a8965991b"><path d="M 44 51 L 107.488281 51 L 107.488281 125.417969 L 44 125.417969 Z M 44 51 " clip-rule="nonzero"/></clipPath><clipPath id="8ba11a0d53"><path d="M 27.238281 23.417969 L 92 23.417969 L 92 90 L 27.238281 90 Z M 27.238281 23.417969 " clip-rule="nonzero"/></clipPath><clipPath id="ae8b5bccf7"><path d="M 27.238281 69 L 41 69 L 41 125.417969 L 27.238281 125.417969 Z M 27.238281 69 " clip-rule="nonzero"/></clipPath><clipPath id="17fb8e6003"><path d="M 95 23.417969 L 107.488281 23.417969 L 107.488281 72 L 95 72 Z M 95 23.417969 " clip-rule="nonzero"/></clipPath><clipPath id="44b3fa4d1c"><rect x="0" width="196" y="0" height="49"/></clipPath><clipPath id="24e05babf2"><rect x="0" width="222" y="0" height="77"/></clipPath></defs><g clip-path="url(#3a8965991b)"><path fill="#3880d1" d="M 105.878906 77.214844 C 106.878906 80.414062 107.328125 83.621094 107.554688 86.960938 L 107.546875 125.550781 L 95.640625 125.550781 L 95.636719 86.484375 C 93.957031 66.691406 71.070312 59.21875 54.546875 66.628906 C 54.042969 66.851562 53.488281 67.113281 53.109375 67.28125 C 52.507812 67.550781 51.757812 68 51.613281 67.984375 C 51.25 67.941406 48.472656 65.449219 47.097656 63.480469 C 44.96875 60.433594 44.585938 59.679688 44.289062 58.414062 C 44.144531 57.78125 44.242188 57.730469 45.292969 57.070312 L 48.15625 55.519531 C 65.964844 46.535156 92.539062 52.21875 102.8125 70.195312 C 103.042969 70.605469 103.648438 71.613281 104.132812 72.769531 " fill-opacity="1" fill-rule="nonzero"/></g><g clip-path="url(#8ba11a0d53)"><path fill="#3880d1" d="M 39.074219 23.417969 L 39.070312 48.03125 C 39.390625 68.800781 62.476562 85.882812 80.65625 74.199219 C 84.480469 71.746094 84.25 71.566406 84.792969 71.683594 C 87.941406 74.070312 90.421875 77.398438 91.847656 81.136719 C 89.785156 82.886719 87.980469 83.828125 85.582031 85.027344 C 58.917969 98.359375 28.984375 78.089844 27.28125 49.003906 L 27.285156 23.417969 Z M 39.074219 23.417969 " fill-opacity="1" fill-rule="nonzero"/></g><g clip-path="url(#ae8b5bccf7)"><path fill="#3880d1" d="M 27.285156 125.546875 L 27.28125 84.410156 C 27.476562 80.011719 28.042969 76.457031 29.839844 72.421875 C 31.132812 69.511719 30.714844 69.371094 31.605469 71.019531 C 32.6875 73.019531 33.320312 73.792969 35.0625 75.851562 C 38.09375 79.429688 39.132812 80.308594 40.058594 80.960938 C 40.820312 81.5 40.671875 80.976562 39.726562 83.332031 C 39.183594 84.679688 39.078125 86.453125 39.070312 86.71875 L 39.074219 125.550781 L 27.285156 125.550781 Z M 27.285156 125.546875 " fill-opacity="1" fill-rule="nonzero"/></g><g clip-path="url(#17fb8e6003)"><path fill="#e0473d" d="M 107.554688 23.417969 L 107.554688 71.882812 C 105.671875 68.113281 103.6875 64.773438 101.195312 61.992188 C 99.09375 59.640625 100.078125 60.519531 95.523438 56.316406 L 95.523438 23.417969 Z M 107.554688 23.417969 " fill-opacity="1" fill-rule="nonzero"/></g><g transform="matrix(1, 0, 0, 1, 134, 21)"><g clip-path="url(#44b3fa4d1c)"><g fill="#3880d1" fill-opacity="1"><g transform="translate(0.966303, 33.114469)"><g><path d="M 3.976562 -16.199219 L 11.121094 -16.199219 L 11.121094 -24.636719 L 3.976562 -30.339844 Z M 24.730469 0 L 23.054688 0 L 30.242188 5.75 L 31.921875 5.75 L 31.921875 -24.492188 L 24.730469 -30.339844 Z M 3.976562 -14.570312 L 3.976562 0 L 2.347656 0 L 9.632812 5.75 L 11.121094 5.75 L 11.121094 -8.914062 L 23.101562 -8.914062 L 23.101562 -14.570312 Z M 3.976562 -14.570312 "/></g></g></g><g fill="#3880d1" fill-opacity="1"><g transform="translate(36.91278, 33.114469)"><g><path d="M 3.976562 -30.339844 L 3.976562 -11.933594 C 3.976562 -5.273438 6.757812 -2.347656 11.695312 -1.628906 C 11.261719 -3.164062 11.167969 -4.3125 11.167969 -6.085938 L 11.167969 -24.589844 Z M 25.308594 -30.339844 L 25.308594 -10.785156 C 25.308594 -6.519531 23.726562 -2.828125 19.652344 -0.957031 C 17.636719 -0.046875 15.625 0.480469 13.613281 0.480469 C 11.167969 0.480469 8.914062 -0.144531 6.566406 -1.628906 L 12.75 3.355469 C 15.097656 5.273438 17.734375 6.230469 20.707031 6.230469 C 27.894531 6.230469 32.496094 1.820312 32.496094 -4.695312 L 32.496094 -24.492188 Z M 25.308594 -30.339844 "/></g></g></g><g fill="#3880d1" fill-opacity="1"><g transform="translate(70.31893, 33.114469)"><g><path d="M 28.085938 0 L 26.363281 0 L 33.648438 5.75 L 35.277344 5.75 L 22.289062 -24.398438 L 15.050781 -30.339844 Z M 8.867188 -13.707031 L 18.453125 -13.707031 L 19.460938 -16.199219 L 14.523438 -27.75 Z M 8.242188 -12.03125 L 3.402344 0 L 1.820312 0 L 8.964844 5.75 L 10.640625 5.75 L 15.480469 -6.277344 L 23.726562 -6.277344 L 21.183594 -12.03125 Z M 8.242188 -12.03125 "/></g></g></g><g fill="#3880d1" fill-opacity="1"><g transform="translate(106.744692, 33.114469)"><g><path d="M 3.976562 -16.199219 L 11.121094 -16.199219 L 11.121094 -24.636719 L 3.976562 -30.339844 Z M 24.730469 0 L 23.054688 0 L 30.242188 5.75 L 31.921875 5.75 L 31.921875 -24.492188 L 24.730469 -30.339844 Z M 3.976562 -14.570312 L 3.976562 0 L 2.347656 0 L 9.632812 5.75 L 11.121094 5.75 L 11.121094 -8.914062 L 23.101562 -8.914062 L 23.101562 -14.570312 Z M 3.976562 -14.570312 "/></g></g></g><g fill="#3880d1" fill-opacity="1"><g transform="translate(142.691169, 33.114469)"><g><path d="M 3.976562 -30.339844 L 3.976562 -11.933594 C 3.976562 -5.273438 6.757812 -2.347656 11.695312 -1.628906 C 11.261719 -3.164062 11.167969 -4.3125 11.167969 -6.085938 L 11.167969 -24.589844 Z M 25.308594 -30.339844 L 25.308594 -10.785156 C 25.308594 -6.519531 23.726562 -2.828125 19.652344 -0.957031 C 17.636719 -0.046875 15.625 0.480469 13.613281 0.480469 C 11.167969 0.480469 8.914062 -0.144531 6.566406 -1.628906 L 12.75 3.355469 C 15.097656 5.273438 17.734375 6.230469 20.707031 6.230469 C 27.894531 6.230469 32.496094 1.820312 32.496094 -4.695312 L 32.496094 -24.492188 Z M 25.308594 -30.339844 "/></g></g></g><g fill="#e0473d" fill-opacity="1"><g transform="translate(179.129662, 33.114469)"><g><path d="M 4.171875 -30.339844 L 4.171875 0 L 2.445312 0 L 9.632812 5.75 L 11.359375 5.75 L 11.359375 -24.589844 Z M 4.171875 -30.339844 "/></g></g></g></g></g><g transform="matrix(1, 0, 0, 1, 121, 61)"><g clip-path="url(#24e05babf2)"><g fill="#3880d1" fill-opacity="1"><g transform="translate(0.549752, 59.870859)"><g><path d="M 12.296875 -24.203125 C 13.910156 -26.367188 15.203125 -28.269531 16.171875 -29.90625 C 17.148438 -31.539062 18.375 -33.8125 19.84375 -36.71875 L 20.0625 -37.265625 L 20.390625 -37.984375 C 20.503906 -38.273438 20.597656 -38.492188 20.671875 -38.640625 L 20.78125 -39.078125 L 20.78125 -40.734375 C 20.78125 -41.546875 20.707031 -42.191406 20.5625 -42.671875 C 20.414062 -43.148438 20.34375 -43.679688 20.34375 -44.265625 C 21.476562 -44.265625 22.5625 -44.039062 23.59375 -43.59375 C 24.625 -43.15625 25.46875 -42.535156 26.125 -41.734375 C 26.125 -41.617188 26.234375 -41.394531 26.453125 -41.0625 C 26.679688 -40.738281 26.921875 -40.445312 27.171875 -40.1875 L 27.5 -40.1875 C 27.757812 -40.1875 28.148438 -40.296875 28.671875 -40.515625 L 29.65625 -40.90625 C 30.757812 -41.3125 31.695312 -41.515625 32.46875 -41.515625 L 33.453125 -41.515625 L 33.796875 -41.171875 L 34.5625 -40.515625 L 34.84375 -37.703125 L 34.890625 -37.703125 C 35.078125 -37.703125 35.375 -37.847656 35.78125 -38.140625 C 36.175781 -38.398438 36.503906 -38.53125 36.765625 -38.53125 C 36.765625 -38.53125 37.242188 -38.398438 38.203125 -38.140625 C 38.859375 -37.960938 39.34375 -37.695312 39.65625 -37.34375 C 39.96875 -37 40.125 -36.53125 40.125 -35.9375 L 40.125 -35.0625 C 40.125 -35.0625 39.976562 -34.859375 39.6875 -34.453125 C 39.351562 -34.085938 39.1875 -33.832031 39.1875 -33.6875 L 36.5 -31.921875 C 36.238281 -31.734375 35.96875 -31.546875 35.6875 -31.359375 C 35.414062 -31.179688 35.28125 -30.988281 35.28125 -30.78125 C 35.28125 -30.582031 35.257812 -30.300781 35.21875 -29.9375 C 35.1875 -29.238281 35.1875 -28.90625 35.21875 -28.9375 L 36.15625 -27.78125 L 36.15625 -27.671875 C 36.15625 -27.378906 36.394531 -27.160156 36.875 -27.015625 L 40.125 -26.625 C 40.5 -26.625 40.867188 -26.515625 41.234375 -26.296875 C 41.597656 -26.078125 41.816406 -25.945312 41.890625 -25.90625 C 42.804688 -25.351562 43.265625 -24.710938 43.265625 -23.984375 C 43.265625 -23.535156 42.753906 -23.09375 41.734375 -22.65625 C 40.847656 -22.320312 40.09375 -22.15625 39.46875 -22.15625 L 36.984375 -22.15625 C 35.035156 -22.15625 33.53125 -22.765625 32.46875 -23.984375 C 31.914062 -24.679688 31.53125 -25.539062 31.3125 -26.5625 L 31.09375 -27.34375 C 30.875 -28.070312 30.648438 -28.601562 30.421875 -28.9375 C 30.203125 -29.269531 29.910156 -29.4375 29.546875 -29.4375 L 24.8125 -29.4375 C 25.90625 -30.28125 26.640625 -30.867188 27.015625 -31.203125 C 27.640625 -31.753906 28.375 -32.359375 29.21875 -33.015625 C 30.800781 -34.117188 31.59375 -35.390625 31.59375 -36.828125 C 31.59375 -37.671875 31.25 -38.382812 30.5625 -38.96875 C 29.882812 -39.5625 29.101562 -39.859375 28.21875 -39.859375 L 27.5625 -39.859375 C 26.976562 -38.753906 26.554688 -38 26.296875 -37.59375 C 24.828125 -35.207031 23.90625 -33.628906 23.53125 -32.859375 C 23.132812 -31.972656 22.9375 -31.273438 22.9375 -30.765625 C 22.9375 -29.878906 23.054688 -28.976562 23.296875 -28.0625 C 23.535156 -27.144531 23.65625 -26.644531 23.65625 -26.5625 C 24.050781 -24.769531 24.25 -23.375 24.25 -22.375 C 24.25 -21.675781 24.15625 -21.171875 23.96875 -20.859375 C 23.789062 -20.546875 23.460938 -20.390625 22.984375 -20.390625 C 22.429688 -20.390625 21.851562 -20.675781 21.25 -21.25 C 20.644531 -21.820312 20.34375 -22.347656 20.34375 -22.828125 L 20.234375 -23.765625 C 20.085938 -24.566406 19.976562 -25.460938 19.90625 -26.453125 C 19.863281 -26.640625 19.84375 -27.15625 19.84375 -28 C 17.195312 -25.351562 14.84375 -24.03125 12.78125 -24.03125 Z M 46.53125 -16.3125 C 46.78125 -16.0625 46.90625 -15.75 46.90625 -15.375 C 46.90625 -15.269531 46.832031 -15.179688 46.6875 -15.109375 C 46.539062 -15.035156 46.359375 -15 46.140625 -15 C 46.023438 -14.957031 45.769531 -14.9375 45.375 -14.9375 L 44.921875 -14.9375 L 43.265625 -14.890625 C 43.046875 -14.847656 42.535156 -14.828125 41.734375 -14.828125 C 41.140625 -14.828125 40.753906 -14.847656 40.578125 -14.890625 C 39.398438 -15.035156 37.910156 -15.109375 36.109375 -15.109375 C 35.335938 -15.109375 34.757812 -15.078125 34.375 -15.015625 C 33.988281 -14.960938 33.332031 -14.828125 32.40625 -14.609375 L 32.40625 -14 L 32.03125 -9.59375 C 31.988281 -9.375 31.957031 -9.003906 31.9375 -8.484375 C 31.925781 -7.972656 31.863281 -7.238281 31.75 -6.28125 C 31.644531 -5.363281 31.582031 -4.644531 31.5625 -4.125 C 31.539062 -3.613281 31.507812 -3.25 31.46875 -3.03125 L 31.25 -0.21875 L 31.03125 1.546875 C 30.957031 2.421875 30.765625 3.144531 30.453125 3.71875 C 30.140625 4.289062 29.65625 4.832031 29 5.34375 L 28.828125 5.34375 L 28.28125 4.25 C 28.132812 4.019531 28.023438 3.816406 27.953125 3.640625 L 27.78125 3.359375 L 27.78125 -13.609375 L 26.34375 -13.609375 L 15 -8.15625 L 11.296875 -8.15625 C 10.929688 -8.15625 10.398438 -8.300781 9.703125 -8.59375 C 9.515625 -8.632812 9.238281 -8.765625 8.875 -8.984375 L 7.5 -9.640625 C 6.945312 -9.867188 6.488281 -10.109375 6.125 -10.359375 L 5.84375 -10.46875 L 7.4375 -10.75 C 8.507812 -10.863281 9.265625 -11.046875 9.703125 -11.296875 L 12.671875 -12.234375 L 16.3125 -13.453125 L 18.03125 -14 C 18.800781 -14.257812 20.054688 -14.691406 21.796875 -15.296875 C 23.546875 -15.898438 24.914062 -16.390625 25.90625 -16.765625 C 26.570312 -16.984375 26.921875 -17.109375 26.953125 -17.140625 L 28.0625 -17.6875 C 27.84375 -18.539062 27.734375 -19.078125 27.734375 -19.296875 C 27.734375 -19.367188 27.65625 -19.535156 27.5 -19.796875 C 27.320312 -20.304688 27.007812 -20.984375 26.5625 -21.828125 C 26.164062 -22.566406 25.96875 -23.191406 25.96875 -23.703125 C 26.988281 -23.703125 27.894531 -23.523438 28.6875 -23.171875 C 29.476562 -22.828125 30.460938 -22.195312 31.640625 -21.28125 C 31.785156 -21.164062 31.878906 -20.796875 31.921875 -20.171875 C 31.921875 -19.367188 32.175781 -18.96875 32.6875 -18.96875 L 43.875 -18.96875 L 45.8125 -17.09375 Z M 46.53125 -16.3125 "/></g></g></g><g fill="#3880d1" fill-opacity="1"><g transform="translate(55.66851, 59.870859)"><g><path d="M 46.53125 -15.546875 C 46.53125 -15.398438 46.253906 -15.289062 45.703125 -15.21875 C 45.222656 -15.101562 44.503906 -15.007812 43.546875 -14.9375 L 42.0625 -14.78125 C 40.40625 -14.550781 39.359375 -14.21875 38.921875 -13.78125 C 38.734375 -11.875 38.640625 -10.367188 38.640625 -9.265625 C 38.609375 -6.242188 38.296875 -3.445312 37.703125 -0.875 C 37.335938 0.519531 36.75 1.878906 35.9375 3.203125 C 35.9375 3.304688 35.863281 3.429688 35.71875 3.578125 L 35.609375 3.6875 L 35.609375 -13.953125 C 35.273438 -13.953125 34.984375 -13.875 34.734375 -13.71875 L 34.0625 -13.453125 L 32.359375 -12.671875 C 31.617188 -12.378906 30.585938 -11.867188 29.265625 -11.140625 L 28.0625 -11.140625 C 26.070312 -11.140625 24.765625 -11.890625 24.140625 -13.390625 C 24.140625 -13.460938 24.175781 -13.5 24.25 -13.5 L 26.34375 -13.5 C 27.445312 -13.644531 29.507812 -14.304688 32.53125 -15.484375 C 33.925781 -16.035156 34.734375 -16.3125 34.953125 -16.3125 C 35.128906 -16.3125 35.3125 -16.382812 35.5 -16.53125 C 35.6875 -16.6875 35.78125 -16.851562 35.78125 -17.03125 L 35.78125 -19.40625 C 34.9375 -19.40625 34.238281 -19.332031 33.6875 -19.1875 C 32.914062 -19.039062 32.21875 -18.96875 31.59375 -18.96875 C 30.488281 -18.96875 29.769531 -19.066406 29.4375 -19.265625 C 29.101562 -19.460938 28.9375 -19.929688 28.9375 -20.671875 C 28.9375 -21.253906 29.195312 -22.007812 29.71875 -22.9375 C 30.300781 -23.78125 30.59375 -24.550781 30.59375 -25.25 L 30.59375 -25.640625 L 28.0625 -28.171875 L 28.0625 -28.21875 C 28.0625 -28.519531 28.1875 -28.671875 28.4375 -28.671875 C 28.84375 -28.671875 29.175781 -28.59375 29.4375 -28.4375 C 29.726562 -28.257812 30.097656 -28.171875 30.546875 -28.171875 C 32.523438 -28.171875 33.515625 -29.253906 33.515625 -31.421875 C 33.515625 -32.078125 33.382812 -32.679688 33.125 -33.234375 C 33.09375 -33.273438 33.078125 -33.367188 33.078125 -33.515625 C 33.078125 -33.921875 33.425781 -34.125 34.125 -34.125 L 34.84375 -34.125 L 36.609375 -35.9375 L 35.171875 -35.9375 C 34.765625 -35.9375 34.503906 -35.957031 34.390625 -36 C 34.023438 -36 33 -35.5 31.3125 -34.5 C 29.625 -33.507812 28.554688 -32.757812 28.109375 -32.25 C 27.523438 -31.695312 27.066406 -31.179688 26.734375 -30.703125 C 26.296875 -30.265625 25.945312 -30.046875 25.6875 -30.046875 C 25.25 -30.046875 24.910156 -30.28125 24.671875 -30.75 C 24.429688 -31.226562 24.3125 -31.859375 24.3125 -32.640625 C 24.195312 -32.335938 23.9375 -31.988281 23.53125 -31.59375 L 22.59375 -30.8125 L 21.5 -29.9375 L 20.78125 -28.609375 C 20.632812 -28.273438 20.359375 -27.742188 19.953125 -27.015625 C 19.953125 -26.972656 19.941406 -26.953125 19.921875 -26.953125 C 19.910156 -26.953125 19.90625 -26.953125 19.90625 -26.953125 L 19.953125 -26.953125 C 20.066406 -26.953125 20.234375 -27.007812 20.453125 -27.125 L 21.171875 -27.5 C 21.898438 -27.90625 22.335938 -28.109375 22.484375 -28.109375 C 23.148438 -27.816406 23.570312 -27.523438 23.75 -27.234375 C 23.9375 -26.941406 24.03125 -26.5 24.03125 -25.90625 L 24.03125 -25.25 L 20.015625 -21.171875 C 19.753906 -19.222656 19.601562 -17.695312 19.5625 -16.59375 L 19.296875 -13.5625 L 20.34375 -14.609375 C 20.601562 -15.046875 20.894531 -15.46875 21.21875 -15.875 C 21.625 -16.351562 21.863281 -16.6875 21.9375 -16.875 C 22.007812 -16.945312 22.066406 -17.035156 22.109375 -17.140625 L 22.4375 -17.75 L 22.9375 -18.515625 L 23.421875 -19.296875 L 24.03125 -20.234375 L 24.46875 -20.953125 L 25.03125 -21.890625 C 25.0625 -21.992188 25.132812 -22.101562 25.25 -22.21875 L 25.640625 -21.28125 L 22.546875 -11.625 L 22.59375 -11.40625 C 22.59375 -11.300781 22.53125 -11.179688 22.40625 -11.046875 C 22.28125 -10.921875 22.195312 -10.835938 22.15625 -10.796875 L 21.546875 -9.75 L 20.5625 -8.21875 L 19.671875 -6.609375 L 19.125 -5.78125 L 18.296875 -5.84375 C 17.671875 -5.875 17.164062 -6.25 16.78125 -6.96875 C 16.394531 -7.6875 16.203125 -8.523438 16.203125 -9.484375 C 16.203125 -11.097656 16.390625 -12.695312 16.765625 -14.28125 C 16.941406 -14.9375 17.050781 -15.984375 17.09375 -17.421875 C 13.5625 -13.265625 10.988281 -10.472656 9.375 -9.046875 C 8.53125 -8.191406 7.882812 -7.765625 7.4375 -7.765625 C 7.21875 -7.765625 7.082031 -7.820312 7.03125 -7.9375 C 6.976562 -8.050781 6.953125 -8.269531 6.953125 -8.59375 L 6.953125 -9.09375 L 7.828125 -10.140625 L 12.515625 -16.15625 C 12.691406 -16.375 12.929688 -16.703125 13.234375 -17.140625 L 14.828125 -19.1875 L 15.375 -20.015625 C 15.488281 -20.191406 15.59375 -20.351562 15.6875 -20.5 C 15.78125 -20.65625 15.863281 -20.785156 15.9375 -20.890625 L 15.984375 -20.890625 C 16.128906 -20.890625 16.210938 -20.9375 16.234375 -21.03125 C 16.253906 -21.125 16.171875 -21.242188 15.984375 -21.390625 L 15.984375 -21.171875 L 15.828125 -21.171875 C 14.941406 -21.171875 13.96875 -20.765625 12.90625 -19.953125 C 12.28125 -19.515625 11.765625 -19.203125 11.359375 -19.015625 C 10.953125 -18.835938 10.546875 -18.75 10.140625 -18.75 C 9.773438 -18.75 9.441406 -18.898438 9.140625 -19.203125 C 8.847656 -19.515625 8.6875 -19.875 8.65625 -20.28125 L 9.15625 -20.453125 C 9.59375 -20.523438 9.847656 -20.617188 9.921875 -20.734375 C 10.035156 -20.734375 10.273438 -20.84375 10.640625 -21.0625 L 13.125 -22.546875 L 13.953125 -23.09375 C 14.578125 -23.46875 15.085938 -23.910156 15.484375 -24.421875 L 15.984375 -25.515625 C 16.023438 -25.554688 16.144531 -25.757812 16.34375 -26.125 C 16.539062 -26.5 16.695312 -27.21875 16.8125 -28.28125 C 16.882812 -29.195312 16.941406 -29.785156 16.984375 -30.046875 C 16.503906 -29.671875 16.035156 -29.226562 15.578125 -28.71875 C 15.117188 -28.207031 14.8125 -27.785156 14.65625 -27.453125 C 14.289062 -26.535156 13.925781 -26.078125 13.5625 -26.078125 C 13.226562 -26.078125 12.90625 -26.222656 12.59375 -26.515625 C 12.28125 -26.804688 12.015625 -27.191406 11.796875 -27.671875 C 11.285156 -28.628906 11.03125 -29.566406 11.03125 -30.484375 C 11.03125 -31.253906 11.210938 -32.0625 11.578125 -32.90625 C 11.722656 -33.3125 11.890625 -33.679688 12.078125 -34.015625 C 12.253906 -34.304688 12.378906 -34.453125 12.453125 -34.453125 L 12.515625 -34.34375 L 12.625 -33.578125 C 12.65625 -33.316406 12.671875 -32.890625 12.671875 -32.296875 C 12.671875 -31.859375 12.734375 -31.566406 12.859375 -31.421875 C 12.992188 -31.273438 13.226562 -31.203125 13.5625 -31.203125 C 14 -31.203125 14.59375 -31.457031 15.34375 -31.96875 C 16.101562 -32.488281 16.613281 -32.96875 16.875 -33.40625 L 16.875 -34.890625 C 16.875 -35.773438 16.851562 -36.421875 16.8125 -36.828125 C 16.78125 -37.234375 16.671875 -37.65625 16.484375 -38.09375 C 16.367188 -38.382812 16.164062 -38.710938 15.875 -39.078125 L 14.71875 -40.1875 C 14.570312 -40.332031 14.5 -40.460938 14.5 -40.578125 C 14.5 -40.796875 14.628906 -40.957031 14.890625 -41.0625 C 15.179688 -41.207031 15.582031 -41.28125 16.09375 -41.28125 C 16.789062 -41.28125 17.414062 -41.132812 17.96875 -40.84375 C 18.519531 -40.507812 18.976562 -40.050781 19.34375 -39.46875 L 19.34375 -37.921875 C 19.34375 -37.367188 19.289062 -36.765625 19.1875 -36.109375 C 19.070312 -35.671875 19.015625 -35.0625 19.015625 -34.28125 L 19.015625 -33.296875 L 20.171875 -34.625 C 20.503906 -35.019531 20.816406 -35.21875 21.109375 -35.21875 C 21.660156 -35.21875 22.296875 -35.0625 23.015625 -34.75 C 23.734375 -34.4375 24.179688 -34.082031 24.359375 -33.6875 C 24.472656 -34.269531 24.640625 -34.835938 24.859375 -35.390625 C 25.117188 -35.898438 25.488281 -36.835938 25.96875 -38.203125 L 25.96875 -39.90625 C 26.039062 -39.90625 26.128906 -39.960938 26.234375 -40.078125 C 26.304688 -40.078125 26.390625 -40.046875 26.484375 -39.984375 C 26.578125 -39.929688 26.660156 -39.890625 26.734375 -39.859375 L 28.5625 -36.265625 L 39.75 -39.25 C 39.925781 -39.4375 40.113281 -39.554688 40.3125 -39.609375 C 40.519531 -39.660156 40.84375 -39.6875 41.28125 -39.6875 C 42.238281 -39.6875 43.128906 -39.421875 43.953125 -38.890625 C 44.785156 -38.359375 45.203125 -37.707031 45.203125 -36.9375 C 45.203125 -36.34375 44.972656 -35.914062 44.515625 -35.65625 C 44.054688 -35.40625 43.492188 -35.1875 42.828125 -35 C 41.984375 -34.894531 41.304688 -34.675781 40.796875 -34.34375 L 38.59375 -33.234375 C 38.59375 -33.234375 38.222656 -33.109375 37.484375 -32.859375 L 38.203125 -32.03125 C 38.460938 -32.03125 38.847656 -31.972656 39.359375 -31.859375 L 40.46875 -31.59375 C 40.382812 -31.59375 40.4375 -31.535156 40.625 -31.421875 L 41.015625 -31.03125 C 41.273438 -30.707031 41.441406 -30.523438 41.515625 -30.484375 L 41.890625 -30.046875 L 41.890625 -29.828125 C 41.890625 -29.785156 41.851562 -29.726562 41.78125 -29.65625 C 41.75 -29.625 41.703125 -29.609375 41.640625 -29.609375 C 41.585938 -29.609375 41.546875 -29.585938 41.515625 -29.546875 C 41.441406 -29.429688 41.179688 -29.226562 40.734375 -28.9375 C 40.222656 -28.53125 39.765625 -28.128906 39.359375 -27.734375 L 39.1875 -24.703125 C 39.1875 -24.472656 39.613281 -24.359375 40.46875 -24.359375 L 41.5625 -24.421875 L 41.953125 -24.03125 C 42.097656 -23.925781 42.234375 -23.757812 42.359375 -23.53125 C 42.492188 -23.3125 42.597656 -23.128906 42.671875 -22.984375 L 42.671875 -22.765625 C 42.671875 -22.503906 42.519531 -22.320312 42.21875 -22.21875 C 41.082031 -21.769531 40.3125 -21.363281 39.90625 -21 C 39.5 -20.632812 39.296875 -20.082031 39.296875 -19.34375 L 39.296875 -18.078125 C 39.816406 -18.078125 40.351562 -18.003906 40.90625 -17.859375 L 41.953125 -17.6875 C 42.054688 -17.65625 42.257812 -17.640625 42.5625 -17.640625 L 43.71875 -17.46875 C 44.78125 -17.4375 45.566406 -17.160156 46.078125 -16.640625 C 46.378906 -16.421875 46.53125 -16.054688 46.53125 -15.546875 Z M 35.671875 -25.96875 L 34.953125 -25.96875 L 34.125 -25.03125 C 33.675781 -24.695312 33.195312 -24.238281 32.6875 -23.65625 C 32.6875 -23.570312 32.632812 -23.441406 32.53125 -23.265625 C 32.34375 -23.148438 32.25 -22.890625 32.25 -22.484375 L 32.96875 -22.484375 L 33.453125 -22.59375 L 34.34375 -22.828125 C 35.226562 -23.078125 35.671875 -23.332031 35.671875 -23.59375 Z M 35.671875 -25.96875 "/></g></g></g><g fill="#3880d1" fill-opacity="1"><g transform="translate(110.787269, 59.870859)"><g><path d="M 48.296875 -5.625 C 48.296875 -2.9375 46.859375 -1.375 43.984375 -0.9375 L 41.34375 -0.65625 L 37.265625 -0.28125 L 34.0625 0.0625 C 32.414062 0.28125 31.128906 0.390625 30.203125 0.390625 C 29.285156 0.390625 28.5625 0.253906 28.03125 -0.015625 C 27.5 -0.296875 26.957031 -0.84375 26.40625 -1.65625 C 25.414062 -3.007812 24.898438 -4.5 24.859375 -6.125 L 24.859375 -13.453125 L 24.09375 -14.21875 C 23.6875 -13.5625 22.914062 -12.695312 21.78125 -11.625 L 19.734375 -9.59375 L 18.796875 -8.65625 C 16.847656 -6.707031 15.707031 -5.625 15.375 -5.40625 L 14.71875 -4.96875 L 13.34375 -3.96875 L 10.921875 -2.265625 L 8.265625 -0.9375 L 7.65625 -0.9375 C 7.550781 -0.820312 7.476562 -0.765625 7.4375 -0.765625 C 7.40625 -0.765625 7.425781 -0.800781 7.5 -0.875 L 7.890625 -1.4375 L 8.265625 -1.984375 L 8.546875 -2.3125 C 8.765625 -2.644531 9.535156 -3.53125 10.859375 -4.96875 L 11.796875 -6.015625 L 14.890625 -9.53125 C 17.753906 -12.769531 19.882812 -15.21875 21.28125 -16.875 L 21.28125 -17.640625 C 20.25 -17.640625 19.351562 -17.445312 18.59375 -17.0625 C 17.84375 -16.675781 16.9375 -16.023438 15.875 -15.109375 C 14.769531 -14.222656 13.878906 -13.59375 13.203125 -13.21875 C 12.523438 -12.851562 11.816406 -12.671875 11.078125 -12.671875 C 10.191406 -12.671875 9.484375 -13.128906 8.953125 -14.046875 C 8.421875 -14.972656 8.15625 -16.003906 8.15625 -17.140625 C 8.15625 -17.429688 8.285156 -17.578125 8.546875 -17.578125 C 8.835938 -17.578125 9.054688 -17.503906 9.203125 -17.359375 C 9.316406 -17.179688 9.628906 -17.09375 10.140625 -17.09375 C 11.242188 -17.09375 12.476562 -17.441406 13.84375 -18.140625 C 14.238281 -18.316406 14.804688 -18.628906 15.546875 -19.078125 L 16.984375 -19.84375 L 17.859375 -20.34375 C 18.453125 -20.707031 19.425781 -21.296875 20.78125 -22.109375 L 21.671875 -22.59375 C 21.773438 -22.707031 21.992188 -22.835938 22.328125 -22.984375 C 22.617188 -23.128906 22.835938 -23.300781 22.984375 -23.5 C 23.128906 -23.707031 23.296875 -23.984375 23.484375 -24.328125 C 23.671875 -24.679688 23.800781 -24.929688 23.875 -25.078125 C 24.238281 -25.773438 24.421875 -26.234375 24.421875 -26.453125 L 24.421875 -32.40625 C 23.023438 -31.269531 21.8125 -29.929688 20.78125 -28.390625 C 20.5625 -28.097656 20.378906 -27.691406 20.234375 -27.171875 C 19.898438 -26.109375 19.441406 -25.226562 18.859375 -24.53125 C 18.597656 -24.195312 18.25 -24.03125 17.8125 -24.03125 C 16.707031 -24.03125 15.785156 -24.75 15.046875 -26.1875 C 14.710938 -26.738281 14.460938 -27.34375 14.296875 -28 C 14.140625 -28.664062 14.0625 -29.273438 14.0625 -29.828125 C 14.0625 -30.484375 14.242188 -31.242188 14.609375 -32.109375 C 14.972656 -32.972656 15.378906 -33.40625 15.828125 -33.40625 C 15.929688 -33.40625 16.003906 -33.332031 16.046875 -33.1875 L 16.203125 -32.53125 C 16.316406 -32.082031 16.472656 -31.75 16.671875 -31.53125 C 16.878906 -31.3125 17.179688 -31.203125 17.578125 -31.203125 L 17.859375 -31.203125 C 17.859375 -31.203125 18.265625 -31.382812 19.078125 -31.75 L 20.34375 -32.296875 C 21.664062 -32.890625 22.820312 -33.550781 23.8125 -34.28125 C 24 -34.28125 24.144531 -34.410156 24.25 -34.671875 L 24.421875 -34.953125 L 24.421875 -40.015625 C 24.421875 -40.390625 24.21875 -40.664062 23.8125 -40.84375 C 22.675781 -41.25 21.847656 -41.617188 21.328125 -41.953125 C 21.148438 -42.023438 21.039062 -42.113281 21 -42.21875 C 21.039062 -42.300781 21.390625 -42.488281 22.046875 -42.78125 L 24.09375 -42.78125 C 25.125 -42.78125 25.929688 -42.722656 26.515625 -42.609375 C 27.097656 -42.503906 27.648438 -42.285156 28.171875 -41.953125 C 28.273438 -41.910156 28.421875 -41.800781 28.609375 -41.625 C 29.085938 -41.144531 29.4375 -40.832031 29.65625 -40.6875 L 29.65625 -36 C 30.28125 -36 30.960938 -36.085938 31.703125 -36.265625 C 32.140625 -36.421875 32.6875 -36.5 33.34375 -36.5 C 34.34375 -36.5 35.21875 -36.25 35.96875 -35.75 C 36.71875 -35.25 37.09375 -34.597656 37.09375 -33.796875 C 37.09375 -33.171875 36.851562 -32.585938 36.375 -32.046875 C 35.90625 -31.515625 35.207031 -30.957031 34.28125 -30.375 C 33.03125 -29.53125 32.003906 -28.484375 31.203125 -27.234375 L 31.203125 -26.625 C 31.234375 -26.582031 31.4375 -26.5625 31.8125 -26.5625 L 32.90625 -26.5625 C 33.644531 -26.5625 34.085938 -26.488281 34.234375 -26.34375 L 34.84375 -25.640625 C 35.0625 -25.410156 35.171875 -25.171875 35.171875 -24.921875 L 35.109375 -24.09375 C 35.078125 -24.019531 35.0625 -23.890625 35.0625 -23.703125 L 27.5 -18.625 C 28.125 -18.15625 28.582031 -17.46875 28.875 -16.5625 C 29.175781 -15.664062 29.328125 -14.738281 29.328125 -13.78125 C 29.328125 -12.789062 29.179688 -11.707031 28.890625 -10.53125 C 28.585938 -9.351562 28.4375 -8.175781 28.4375 -7 C 28.4375 -5.9375 28.460938 -5.15625 28.515625 -4.65625 C 28.578125 -4.15625 28.71875 -3.742188 28.9375 -3.421875 C 29.195312 -3.015625 29.59375 -2.71875 30.125 -2.53125 C 30.65625 -2.351562 31.378906 -2.265625 32.296875 -2.265625 C 34.210938 -2.265625 35.941406 -2.472656 37.484375 -2.890625 C 39.023438 -3.316406 40.660156 -4.007812 42.390625 -4.96875 C 42.722656 -5.144531 43.128906 -5.59375 43.609375 -6.3125 C 44.085938 -7.03125 44.328125 -7.554688 44.328125 -7.890625 L 44.328125 -14.0625 C 45.203125 -12.914062 46.082031 -11.609375 46.96875 -10.140625 C 47.851562 -8.671875 48.296875 -7.164062 48.296875 -5.625 Z M 20.890625 -42.390625 C 20.859375 -42.429688 20.84375 -42.539062 20.84375 -42.71875 Z M 20.890625 -42.390625 L 21 -42.21875 L 20.953125 -42.21875 L 20.953125 -42.171875 Z M 28.890625 -32.46875 L 29.109375 -28.609375 C 29.953125 -31.035156 30.375 -32.800781 30.375 -33.90625 L 28.890625 -33.90625 Z M 28.890625 -32.46875 "/></g></g></g><g fill="#3880d1" fill-opacity="1"><g transform="translate(165.906028, 59.870859)"><g><path d="M 26.34375 -39.90625 C 26.570312 -39.875 26.738281 -39.910156 26.84375 -40.015625 C 27.175781 -40.015625 27.414062 -40.070312 27.5625 -40.1875 L 28.109375 -40.515625 C 29.910156 -41.546875 31.070312 -42.226562 31.59375 -42.5625 C 32.726562 -43.257812 33.9375 -43.609375 35.21875 -43.609375 C 36.289062 -43.609375 37.109375 -43.3125 37.671875 -42.71875 C 38.242188 -42.132812 38.53125 -41.328125 38.53125 -40.296875 C 38.53125 -38.609375 37.578125 -36.972656 35.671875 -35.390625 C 34.597656 -34.578125 33.734375 -33.972656 33.078125 -33.578125 L 29.828125 -31.46875 L 32.90625 -31.921875 C 33.675781 -31.921875 35.019531 -31.992188 36.9375 -32.140625 L 38.421875 -32.1875 C 39.597656 -32.257812 40.40625 -32.296875 40.84375 -32.296875 C 41.988281 -32.296875 43.019531 -32.03125 43.9375 -31.5 C 44.851562 -30.96875 45.3125 -30.28125 45.3125 -29.4375 C 45.3125 -27.632812 42.332031 -26.40625 36.375 -25.75 C 34.976562 -25.5625 33.96875 -25.300781 33.34375 -24.96875 C 33.644531 -24.75 33.832031 -24.535156 33.90625 -24.328125 C 33.976562 -24.128906 34.015625 -23.882812 34.015625 -23.59375 L 34.015625 -23.09375 C 34.015625 -22.320312 33.8125 -21.625 33.40625 -21 C 33 -20.375 32.300781 -19.601562 31.3125 -18.6875 L 31.3125 -18.359375 C 31.3125 -17.910156 31.515625 -17.191406 31.921875 -16.203125 L 37.921875 -16.53125 C 38.878906 -16.425781 40.039062 -15.691406 41.40625 -14.328125 L 42.28125 -13.390625 C 42.320312 -13.359375 42.070312 -13.070312 41.53125 -12.53125 C 41 -12 40.644531 -11.734375 40.46875 -11.734375 L 39.03125 -11.734375 C 38.550781 -11.734375 37.867188 -11.773438 36.984375 -11.859375 C 36.804688 -11.890625 36.382812 -11.90625 35.71875 -11.90625 L 33.078125 -11.859375 C 33.078125 -11.378906 33.128906 -10.878906 33.234375 -10.359375 L 33.40625 -8.546875 L 33.1875 -5.453125 C 33.070312 -4.609375 32.832031 -3.78125 32.46875 -2.96875 C 32.101562 -2.164062 31.644531 -1.46875 31.09375 -0.875 C 29.84375 0.375 28.351562 1 26.625 1 C 25.738281 1 24.984375 0.867188 24.359375 0.609375 C 23.734375 0.347656 23.09375 -0.0351562 22.4375 -0.546875 C 23.25 -0.472656 24.160156 -0.664062 25.171875 -1.125 C 26.179688 -1.582031 27.050781 -2.238281 27.78125 -3.09375 C 28.519531 -3.9375 29.085938 -4.90625 29.484375 -6 C 29.890625 -7.101562 30.09375 -8.207031 30.09375 -9.3125 C 30.09375 -9.6875 30.113281 -9.925781 30.15625 -10.03125 C 30.15625 -10.539062 30.015625 -10.929688 29.734375 -11.203125 C 29.460938 -11.484375 29.125 -11.625 28.71875 -11.625 C 27.363281 -11.625 25.710938 -11.238281 23.765625 -10.46875 C 22.691406 -10.070312 21.804688 -9.789062 21.109375 -9.625 C 20.410156 -9.457031 19.695312 -9.375 18.96875 -9.375 C 17.789062 -9.375 16.703125 -9.613281 15.703125 -10.09375 C 15.234375 -10.3125 14.773438 -10.613281 14.328125 -11 C 13.890625 -11.382812 13.613281 -11.707031 13.5 -11.96875 C 15.707031 -11.894531 18.078125 -12.09375 20.609375 -12.5625 C 23.148438 -13.039062 25.707031 -13.78125 28.28125 -14.78125 L 28.28125 -15.65625 L 28.21875 -16.046875 L 28.28125 -16.703125 C 28.3125 -16.742188 28.328125 -16.925781 28.328125 -17.25 L 28.328125 -18.1875 C 28.328125 -18.59375 28.347656 -18.816406 28.390625 -18.859375 C 28.535156 -19.109375 28.609375 -19.34375 28.609375 -19.5625 C 28.609375 -19.894531 28.367188 -20.0625 27.890625 -20.0625 L 27.171875 -20.015625 C 26.992188 -20.015625 26.773438 -19.882812 26.515625 -19.625 L 25.96875 -19.078125 C 25.5625 -18.628906 25.128906 -18.273438 24.671875 -18.015625 C 24.210938 -17.765625 23.816406 -17.640625 23.484375 -17.640625 C 22.597656 -17.640625 22.15625 -18.300781 22.15625 -19.625 C 22.15625 -20.207031 22.253906 -20.765625 22.453125 -21.296875 C 22.660156 -21.835938 22.96875 -22.269531 23.375 -22.59375 L 26.6875 -24.03125 C 28.59375 -24.800781 29.710938 -25.207031 30.046875 -25.25 L 30.59375 -25.296875 L 31.640625 -25.40625 L 32.75 -25.578125 C 33.070312 -25.648438 33.253906 -25.707031 33.296875 -25.75 L 33.84375 -26.015625 L 35.78125 -27.390625 L 36.546875 -28.0625 L 37.265625 -28.71875 L 38.359375 -29.875 L 31.203125 -28.5625 L 17.75 -24.03125 C 16.425781 -24.21875 15.367188 -23.722656 14.578125 -22.546875 C 13.785156 -21.367188 13.132812 -19.734375 12.625 -17.640625 L 11.578125 -17.640625 C 10.878906 -17.972656 10.425781 -18.421875 10.21875 -18.984375 C 10.019531 -19.554688 9.921875 -20.394531 9.921875 -21.5 C 9.921875 -23.039062 10.257812 -24.40625 10.9375 -25.59375 C 11.625 -26.789062 12.664062 -27.960938 14.0625 -29.109375 C 14.019531 -29.140625 14.007812 -29.15625 14.03125 -29.15625 C 14.050781 -29.15625 14.0625 -29.15625 14.0625 -29.15625 C 14.132812 -29.15625 14.207031 -29.082031 14.28125 -28.9375 L 14.890625 -28.109375 C 14.992188 -28.003906 15.175781 -27.726562 15.4375 -27.28125 C 15.726562 -26.769531 16.039062 -26.441406 16.375 -26.296875 C 16.59375 -26.222656 16.757812 -26.1875 16.875 -26.1875 L 17.421875 -26.1875 C 22.347656 -29.007812 25.523438 -30.957031 26.953125 -32.03125 L 29.484375 -34.5625 C 29.960938 -35 30.40625 -35.441406 30.8125 -35.890625 L 31.53125 -36.65625 L 31.96875 -37.15625 L 32.640625 -38.09375 C 33.265625 -38.894531 33.703125 -39.519531 33.953125 -39.96875 C 33.953125 -40.113281 34.082031 -40.425781 34.34375 -40.90625 L 34.34375 -41.84375 L 33.453125 -41.953125 L 32.6875 -42.0625 C 31.957031 -41.875 31.40625 -41.503906 31.03125 -40.953125 C 30.664062 -40.398438 30.28125 -39.5 29.875 -38.25 C 29.539062 -37.1875 29.207031 -36.429688 28.875 -35.984375 C 28.550781 -35.546875 28.09375 -35.328125 27.5 -35.328125 C 27.0625 -35.328125 26.628906 -35.4375 26.203125 -35.65625 C 25.785156 -35.882812 25.484375 -36.164062 25.296875 -36.5 C 24.742188 -37.300781 24.382812 -37.90625 24.21875 -38.3125 C 24.0625 -38.71875 23.984375 -39.140625 23.984375 -39.578125 C 23.984375 -39.835938 24.019531 -40.085938 24.09375 -40.328125 C 24.164062 -40.566406 24.253906 -40.6875 24.359375 -40.6875 L 24.578125 -40.6875 L 24.921875 -40.578125 Z M 16.484375 -39.578125 L 16.59375 -39.578125 L 18.578125 -38.53125 C 20.160156 -37.71875 21.351562 -36.742188 22.15625 -35.609375 C 22.5625 -34.984375 22.765625 -34.285156 22.765625 -33.515625 C 22.765625 -32.890625 22.625 -32.484375 22.34375 -32.296875 C 22.070312 -32.117188 21.550781 -32.03125 20.78125 -32.03125 C 19.570312 -32.03125 18.488281 -32.910156 17.53125 -34.671875 C 17.09375 -35.410156 16.734375 -36.191406 16.453125 -37.015625 C 16.179688 -37.835938 16.046875 -38.546875 16.046875 -39.140625 C 16.046875 -39.429688 16.191406 -39.578125 16.484375 -39.578125 Z M 16.484375 -39.578125 "/></g></g></g></g></g></svg>